# xmcd
#
# Track frame offsets: 
#        182
#        19132
#        34695
#        53820
#        75570
#        86595
#        98807
#        133420
#        152445
#        174495
#        200970
#        212945
#        224470
#        242795
#        255145
#        282270
#
# Disc length: 3978 seconds
#
# Revision: 4
# Processed by: cddbd v1.5.2PL0 Copyright (c) Steve Scherf et al.
# Submitted via: ExactAudioCopy v1.3
#
DISCID=e10f8810
DTITLE=George Gershwin - Jazzclub Highlights - The Gershwin Songbook
DYEAR=1992
DGENRE=Jazz
TTITLE0=Billie Holiday - They Can't Take That Away from Me
TTITLE1=Helen Merrill - Summertime
TTITLE2=Ella Fitzgerald and Louis Armstrong - Let's Call the Wohle Thi
TTITLE2=ng Off
TTITLE3=Sarah Vaughan - Embraceable You
TTITLE4=Dinah Washington - But Not for Me
TTITLE5=Bing Crosby - They All Laughed
TTITLE6=Betty Carter - The Man I Love
TTITLE7=The Gordons with Dizzy Gillespie and Stuff Smith - Oh, Lady Be
TTITLE7=Good
TTITLE8=Louis Armstrong - There's a Boat Dat's Leavin' Soon for New Yo
TTITLE8=rk
TTITLE9=Ella Fitzgerald - How Long Has This Been Going On?
TTITLE10=Joe Williams - 'S Wonderful
TTITLE11=Nina Simone - I Loves You, Porgy
TTITLE12=Bill Henderson - I've Got a Crush on You
TTITLE13=Fred Astaire - Fascinating Rhythm
TTITLE14=Blossom Dearie - Someone to Watch over Me
TTITLE15=Shirley Horn - Our Love Is Here to Stay
EXTD=
EXTT0=
EXTT1=
EXTT2=
EXTT3=
EXTT4=
EXTT5=
EXTT6=
EXTT7=
EXTT8=
EXTT9=
EXTT10=
EXTT11=
EXTT12=
EXTT13=
EXTT14=
EXTT15=
PLAYORDER=
